<?xml version="1.0" standalone="no"?>
<!DOCTYPE svg PUBLIC "-//W3C//DTD SVG 20010904//EN"
 "http://www.w3.org/TR/2001/REC-SVG-20010904/DTD/svg10.dtd">
<svg version="1.0" xmlns="http://www.w3.org/2000/svg"
 width="576.000000pt" height="576.000000pt" viewBox="0 0 576.000000 576.000000"
 preserveAspectRatio="xMidYMid meet">
<metadata>
Created by potrace 1.14, written by Peter Selinger 2001-2017
</metadata>
<g transform="translate(0.000000,576.000000) scale(0.100000,-0.100000)"
fill="#000000" stroke="none">
<path d="M538 4805 c-2 -3 -42 -7 -87 -9 -94 -5 -169 -31 -246 -84 -46 -32
-129 -116 -130 -131 -1 -3 -12 -26 -24 -51 -53 -100 -51 -32 -48 -1670 2
-1462 3 -1527 21 -1575 69 -186 225 -306 416 -321 36 -3 71 -7 77 -9 7 -2 13
0 13 6 0 6 4 8 9 5 5 -4 45 -6 88 -6 83 1 105 1 126 -1 6 0 32 0 57 0 25 0 54
1 65 1 11 0 62 0 113 0 51 0 97 -2 103 -5 5 -4 9 -2 9 3 0 5 20 6 45 2 25 -4
45 -4 45 0 0 4 20 4 45 0 25 -4 45 -4 45 0 0 4 20 4 45 0 25 -4 45 -4 45 0 0
4 20 4 45 0 25 -4 48 -3 51 2 3 4 9 6 15 3 5 -3 48 -6 96 -5 97 1 117 0 136
-1 6 0 32 0 57 0 25 0 54 1 65 1 162 -3 276 0 286 6 4 2 10 0 13 -4 3 -5 26
-6 51 -2 25 4 45 4 45 0 0 -4 20 -4 45 0 25 4 45 4 45 1 0 -3 26 -5 57 -3 32
1 78 2 103 1 84 -1 105 -1 140 0 19 1 42 1 50 0 8 0 35 0 60 0 25 0 54 1 65 1
11 0 62 0 113 0 51 0 97 -2 103 -5 5 -4 9 -2 9 3 0 5 20 6 45 2 25 -4 45 -4
45 0 0 4 20 4 45 0 25 -4 45 -4 45 0 0 4 20 4 45 0 25 -4 45 -4 45 0 0 3 22 4
50 0 27 -4 50 -2 50 2 0 5 4 7 9 3 8 -5 35 0 111 19 141 36 285 193 317 346
13 63 20 177 10 186 -2 3 -1 20 3 38 4 19 4 39 0 46 -4 7 -4 26 -1 44 4 17 5
42 1 56 -3 14 -3 42 0 62 4 20 4 42 0 48 -4 6 -4 31 0 55 4 25 4 45 0 45 -4 0
-4 20 0 45 4 25 4 45 0 45 -4 0 -4 20 0 45 4 25 4 45 0 45 -4 0 -4 20 0 45 4
24 4 49 0 56 -4 6 -4 25 0 43 4 17 4 40 0 50 -3 11 -3 39 0 63 4 23 4 43 0 43
-4 0 -4 20 0 45 4 25 4 45 0 45 -4 0 -4 20 0 45 4 25 4 45 0 45 -4 0 -4 20 0
45 4 24 4 49 0 56 -4 6 -4 25 0 43 4 17 4 40 0 50 -3 11 -3 39 0 63 4 23 4 43
0 43 -4 0 -4 20 0 45 4 25 4 45 1 45 -3 0 -5 24 -4 52 4 86 4 90 4 173 1 44 0
91 -1 105 -1 14 -1 32 -1 40 0 8 1 31 0 50 0 19 0 42 0 50 1 8 1 29 0 45 -1
17 -1 36 0 43 2 29 3 124 0 175 0 11 0 48 1 112 0 11 0 36 -1 55 0 19 0 42 0
50 1 8 1 29 0 45 -1 17 -1 36 0 43 2 29 3 124 0 175 0 6 0 30 1 52 1 50 -7
185 -12 205 -28 110 -102 220 -188 281 -75 52 -147 78 -240 85 -36 3 -71 7
-77 9 -7 2 -13 1 -13 -3 0 -4 -46 -6 -102 -4 -164 4 -197 4 -207 -3 -5 -3 -12
-1 -15 3 -3 5 -26 6 -51 2 -25 -4 -45 -4 -45 0 0 4 -20 4 -45 0 -25 -4 -45 -4
-45 -1 0 3 -26 5 -57 3 -32 -1 -78 -2 -103 -1 -25 0 -52 0 -60 0 -8 0 -37 0
-65 0 -27 0 -59 0 -70 -1 -98 -4 -125 -4 -125 1 0 3 -20 3 -45 -1 -25 -4 -45
-4 -45 0 0 4 -20 4 -45 0 -24 -4 -50 -3 -57 1 -6 4 -15 6 -18 4 -8 -5 -37 -6
-170 -6 -94 0 -109 0 -132 2 -7 0 -33 0 -58 0 -25 0 -54 -1 -65 -1 -11 0 -62
0 -113 0 -51 0 -97 2 -103 5 -5 4 -9 2 -9 -3 0 -5 -20 -6 -45 -2 -25 4 -45 4
-45 0 0 -4 -20 -4 -45 0 -25 4 -45 4 -45 0 0 -4 -20 -4 -45 0 -25 4 -45 4 -45
0 0 -4 -20 -4 -45 0 -25 4 -48 3 -51 -2 -3 -4 -9 -6 -15 -3 -5 3 -48 6 -96 5
-97 -1 -117 0 -135 1 -7 0 -33 0 -58 0 -25 0 -54 -1 -65 -1 -11 0 -53 0 -92 0
-40 -1 -77 1 -81 4 -5 3 -11 3 -14 1z"/>
<path d="M5343 4466 c-38 -12 -122 -65 -283 -178 -30 -22 -104 -73 -165 -114
-60 -41 -144 -99 -185 -127 -41 -29 -127 -88 -190 -132 -63 -43 -116 -83 -118
-87 -2 -4 -7 -8 -12 -8 -8 0 -78 -46 -180 -119 -30 -21 -54 -45 -52 -53 2 -7
3 -55 2 -105 0 -51 -1 -101 0 -110 0 -10 -1 -38 -1 -63 0 -25 0 -51 0 -57 2
-27 2 -40 2 -83 -1 -69 -1 -83 0 -115 0 -36 0 -38 0 -90 -1 -70 -1 -78 -1
-168 0 -49 2 -92 5 -97 3 -5 1 -11 -3 -14 -5 -3 -6 -26 -2 -51 4 -25 4 -45 0
-45 -4 0 -4 -20 0 -45 4 -25 4 -45 0 -45 -4 0 -4 -20 0 -45 4 -25 4 -45 0 -45
-4 0 -4 -20 0 -45 4 -25 3 -45 -2 -45 -5 0 -6 -4 -3 -10 8 -13 9 -195 1 -208
-3 -6 -2 -13 2 -16 5 -3 7 -16 5 -30 -4 -20 6 -30 69 -72 40 -27 78 -52 83
-56 6 -4 31 -24 58 -43 26 -19 50 -35 52 -35 7 0 63 -39 89 -62 11 -10 23 -18
27 -18 4 0 14 -6 21 -12 7 -7 54 -40 103 -73 50 -33 96 -66 103 -72 7 -7 17
-13 21 -13 4 0 16 -8 27 -17 20 -18 27 -23 89 -63 17 -10 35 -23 41 -28 5 -5
20 -14 31 -21 12 -6 28 -17 35 -23 25 -23 77 -58 87 -58 5 0 11 -4 13 -8 3 -9
146 -107 184 -128 83 -44 255 -35 320 18 52 42 97 94 116 136 l23 47 2 1359
c2 747 0 1363 -4 1370 -4 6 -8 13 -8 16 0 3 -11 26 -24 52 -26 55 -83 107
-148 138 -56 26 -171 34 -230 16z"/>
</g>
</svg>
